<svg width="203" height="50" viewBox="0 0 203 50" fill="none" xmlns="http://www.w3.org/2000/svg">
<path d="M9.4541 29.8691V40H2.25586V10.1406H14.1709C16.4541 10.1406 18.4707 10.5645 20.2207 11.4121C21.9844 12.2461 23.3447 13.4424 24.3018 15.001C25.2725 16.5459 25.7578 18.3027 25.7578 20.2715C25.7578 23.1836 24.7119 25.5146 22.6201 27.2646C20.542 29.001 17.6846 29.8691 14.0479 29.8691H9.4541ZM9.4541 24.3115H14.1709C15.5654 24.3115 16.625 23.9629 17.3496 23.2656C18.0879 22.5684 18.457 21.584 18.457 20.3125C18.457 18.918 18.0811 17.8037 17.3291 16.9697C16.5771 16.1357 15.5518 15.7119 14.2529 15.6982H9.4541V24.3115ZM28.1367 28.7002C28.1367 26.4854 28.5674 24.5166 29.4287 22.7939C30.29 21.0576 31.5273 19.7246 33.1406 18.7949C34.7539 17.8652 36.6475 17.4004 38.8213 17.4004C42.1436 17.4004 44.7617 18.4326 46.6758 20.4971C48.5898 22.5479 49.5469 25.3438 49.5469 28.8848V29.1309C49.5469 32.5898 48.583 35.3379 46.6553 37.375C44.7412 39.3984 42.1436 40.4102 38.8623 40.4102C35.7041 40.4102 33.168 39.4668 31.2539 37.5801C29.3398 35.6797 28.3076 33.1094 28.1572 29.8691L28.1367 28.7002ZM35.0479 29.1309C35.0479 31.1816 35.3691 32.6855 36.0117 33.6426C36.6543 34.5996 37.6045 35.0781 38.8623 35.0781C41.3232 35.0781 42.5811 33.1846 42.6357 29.3975V28.7002C42.6357 24.7217 41.3643 22.7324 38.8213 22.7324C36.5107 22.7324 35.2598 24.4482 35.0684 27.8799L35.0479 29.1309ZM61.5029 31.7354L59.5547 33.6836V40H52.6436V8.47949H59.5547V25.2139L60.252 24.291L65.4609 17.8105H73.7461L65.9736 26.9365L74.2588 40H66.3428L61.5029 31.7354ZM85.8867 40.4102C82.4824 40.4102 79.7275 39.3984 77.6221 37.375C75.5166 35.3379 74.4639 32.6924 74.4639 29.4385V28.8643C74.4639 26.5947 74.8809 24.5918 75.7148 22.8555C76.5625 21.1191 77.793 19.7793 79.4062 18.8359C81.0195 17.8789 82.9336 17.4004 85.1484 17.4004C88.2656 17.4004 90.7266 18.3711 92.5312 20.3125C94.3359 22.2402 95.2383 24.9336 95.2383 28.3926V31.0791H81.498C81.7441 32.3232 82.2842 33.3008 83.1182 34.0117C83.9521 34.7227 85.0322 35.0781 86.3584 35.0781C88.5459 35.0781 90.2549 34.3125 91.4854 32.7812L94.6436 36.5137C93.7822 37.7031 92.5586 38.6533 90.9727 39.3643C89.4004 40.0615 87.7051 40.4102 85.8867 40.4102ZM85.1074 22.7324C83.084 22.7324 81.8809 24.0723 81.498 26.752H88.4707V26.2188C88.498 25.1113 88.2178 24.2568 87.6299 23.6553C87.042 23.04 86.2012 22.7324 85.1074 22.7324ZM131.455 40C131.209 39.5488 130.99 38.8857 130.799 38.0107C129.527 39.6104 127.75 40.4102 125.467 40.4102C123.375 40.4102 121.598 39.7812 120.135 38.5234C118.672 37.252 117.94 35.6592 117.94 33.7451C117.94 31.3389 118.829 29.5205 120.606 28.29C122.384 27.0596 124.968 26.4443 128.358 26.4443H130.491V25.2754C130.491 23.2383 129.609 22.2197 127.846 22.2197C126.205 22.2197 125.385 23.0264 125.385 24.6396H118.474C118.474 22.4932 119.383 20.75 121.201 19.4102C123.033 18.0703 125.364 17.4004 128.194 17.4004C131.024 17.4004 133.26 18.0908 134.9 19.4717C136.541 20.8525 137.382 22.7461 137.423 25.1523V34.9756C137.45 37.0127 137.765 38.5713 138.366 39.6514V40H131.455ZM127.128 35.4883C127.989 35.4883 128.7 35.3037 129.261 34.9346C129.835 34.5654 130.245 34.1484 130.491 33.6836V30.1357H128.481C126.075 30.1357 124.872 31.2158 124.872 33.376C124.872 34.0049 125.084 34.5176 125.508 34.9141C125.932 35.2969 126.472 35.4883 127.128 35.4883ZM149.317 12.2939V17.8105H152.968V22.6094H149.317V32.7607C149.317 33.5947 149.468 34.1758 149.769 34.5039C150.069 34.832 150.664 34.9961 151.553 34.9961C152.236 34.9961 152.811 34.9551 153.275 34.873V39.8154C152.031 40.2119 150.732 40.4102 149.379 40.4102C147 40.4102 145.243 39.8496 144.108 38.7285C142.974 37.6074 142.406 35.9053 142.406 33.6221V22.6094H139.576V17.8105H142.406V12.2939H149.317ZM163.755 12.2939V17.8105H167.405V22.6094H163.755V32.7607C163.755 33.5947 163.905 34.1758 164.206 34.5039C164.507 34.832 165.102 34.9961 165.99 34.9961C166.674 34.9961 167.248 34.9551 167.713 34.873V39.8154C166.469 40.2119 165.17 40.4102 163.816 40.4102C161.438 40.4102 159.681 39.8496 158.546 38.7285C157.411 37.6074 156.844 35.9053 156.844 33.6221V22.6094H154.014V17.8105H156.844V12.2939H163.755ZM177.434 40H170.502V8.5H177.434V40ZM192.445 40.4102C189.041 40.4102 186.286 39.3984 184.181 37.375C182.075 35.3379 181.022 32.6924 181.022 29.4385V28.8643C181.022 26.5947 181.439 24.5918 182.273 22.8555C183.121 21.1191 184.352 19.7793 185.965 18.8359C187.578 17.8789 189.492 17.4004 191.707 17.4004C194.824 17.4004 197.285 18.3711 199.09 20.3125C200.895 22.2402 201.797 24.9336 201.797 28.3926V31.0791H188.057C188.303 32.3232 188.843 33.3008 189.677 34.0117C190.511 34.7227 191.591 35.0781 192.917 35.0781C195.104 35.0781 196.813 34.3125 198.044 32.7812L201.202 36.5137C200.341 37.7031 199.117 38.6533 197.531 39.3643C195.959 40.0615 194.264 40.4102 192.445 40.4102ZM191.666 22.7324C189.643 22.7324 188.439 24.0723 188.057 26.752H195.029V26.2188C195.057 25.1113 194.776 24.2568 194.188 23.6553C193.601 23.04 192.76 22.7324 191.666 22.7324Z" fill="#B02B2B"/>
<path d="M108.5 12C100.505 12 94 18.9534 94 27.5C94 36.0466 100.505 43 108.5 43C116.495 43 123 36.0466 123 27.5C123 18.9534 116.495 12 108.5 12Z" fill="white"/>
<path d="M91 41H108L102.333 28.5862L106.583 1H98.0833L91 41Z" fill="#33363A" stroke="white" stroke-width="0.9"/>
<path d="M92 41H109L103.333 28.5862L107.583 1H99.0833L92 41Z" fill="#33363A" stroke="#33363A" stroke-width="0.9"/>
<path d="M108 14C100.281 14 94 20.2805 94 28C94 35.7195 100.281 42 108 42C115.719 42 122 35.7195 122 28C122 20.2805 115.719 14 108 14Z" fill="#33363A"/>
<path d="M108 15.1666C114.645 15.1666 120.125 20.2437 120.769 26.7221C119.819 26.9323 117.407 27.3716 113.774 27.4116C113.474 24.4746 111.015 22.1666 108 22.1666C104.985 22.1666 102.526 24.4746 102.226 27.4116C98.5929 27.3716 96.1809 26.9323 95.2314 26.7221C95.875 20.2437 101.355 15.1666 108 15.1666Z" fill="#E53935"/>
<path d="M108 32.6666C110.577 32.6666 112.667 30.5773 112.667 28C112.667 25.4227 110.577 23.3334 108 23.3334C105.423 23.3334 103.333 25.4227 103.333 28C103.333 30.5773 105.423 32.6666 108 32.6666Z" fill="#455A64"/>
<path d="M108 40.8334C100.924 40.8334 95.1666 35.0763 95.1666 28C95.1666 27.9674 95.1713 27.936 95.1715 27.9034C96.2823 28.1399 98.6838 28.5349 102.225 28.5734C102.518 31.5176 104.98 33.8333 108 33.8333C111.02 33.8333 113.482 31.5176 113.775 28.5734C117.316 28.5349 119.718 28.1399 120.828 27.9034C120.829 27.936 120.833 27.9673 120.833 28C120.833 35.0763 115.076 40.8334 108 40.8334Z" fill="white"/>
<path d="M108 31.5C109.933 31.5 111.5 29.933 111.5 28C111.5 26.067 109.933 24.5 108 24.5C106.067 24.5 104.5 26.067 104.5 28C104.5 29.933 106.067 31.5 108 31.5Z" fill="#303C42"/>
<path d="M108 30.3334C109.289 30.3334 110.333 29.2887 110.333 28C110.333 26.7113 109.289 25.6666 108 25.6666C106.711 25.6666 105.667 26.7113 105.667 28C105.667 29.2887 106.711 30.3334 108 30.3334Z" fill="#F2F2F2"/>
<path opacity="0.2" d="M106.128 28.7048C106.128 27.418 107.175 26.3715 108.462 26.3715C109.13 26.3715 109.729 26.6571 110.155 27.1084C109.804 26.2631 108.971 25.6666 108 25.6666C106.713 25.6666 105.667 26.7131 105.667 28C105.667 28.6188 105.913 29.1784 106.307 29.5964C106.193 29.3214 106.128 29.0207 106.128 28.7048Z" fill="white"/>
<path opacity="0.1" d="M118.322 27.1248C119.473 26.9851 120.3 26.8259 120.769 26.7221C120.451 23.5286 118.955 20.6793 116.727 18.6072C117.846 20.511 118.5 22.7199 118.5 25.0834C118.5 25.7797 118.429 26.4583 118.322 27.1248Z" fill="black"/>
<path opacity="0.1" d="M120.829 27.9034C120.252 28.0262 119.32 28.1909 118.069 28.3271C116.626 33.835 111.621 37.9166 105.667 37.9166C102.288 37.9166 99.2186 36.594 96.9244 34.4516C99.1526 38.2614 103.277 40.8334 108 40.8334C115.076 40.8334 120.833 35.0763 120.833 28C120.833 27.9674 120.829 27.936 120.829 27.9034Z" fill="black"/>
</svg>
