<svg width="92" height="92" viewBox="0 0 92 92" fill="none" xmlns="http://www.w3.org/2000/svg">
<path d="M23.4859 29.1244C23.4859 37.4538 24.3076 42.5677 15.9782 42.5677C7.64874 42.5677 0.897461 35.8158 0.897461 27.4864C0.897461 19.157 7.64874 12.4045 15.9782 12.4045C24.3076 12.4045 23.4859 20.795 23.4859 29.1244Z" fill="#A962E8"/>
<path d="M0.897461 27.4864C0.897461 35.2102 6.70436 41.5737 14.1911 42.4576C20.4876 41.6874 19.8041 36.7584 19.8041 29.1244C19.8041 21.4042 20.5032 13.6368 13.9751 12.5416C6.59364 13.5219 0.897461 19.8363 0.897461 27.4864Z" fill="#8B4FE0"/>
<path d="M12.2031 30.3704C12.2031 38.6998 24.3082 42.5677 15.9788 42.5677C7.64934 42.5677 0.897461 35.8158 0.897461 27.4864C0.897461 19.157 7.64874 12.4045 15.9782 12.4045C24.3076 12.4045 12.2031 22.041 12.2031 30.3704Z" fill="#E2CBAA"/>
<path d="M5.50264 30.3704C5.50264 23.281 14.2636 15.2484 11.7374 13.0138C5.47392 14.8463 0.897461 20.6298 0.897461 27.4864C0.897461 34.4753 5.65226 40.351 12.1025 42.0626C13.1049 40.7723 5.50264 36.9757 5.50264 30.3704Z" fill="#F2EAC9"/>
<path d="M24.3838 29.1247C24.3838 28.4364 24.3892 27.7476 24.3952 27.0635C24.4401 21.5732 24.4826 16.3869 21.6716 13.5532C20.4561 12.3276 18.7732 11.6537 16.6696 11.5328C16.4506 11.5166 16.2214 11.5077 15.9784 11.5077C7.16781 11.5071 0 18.6761 0 27.4867C0 36.2973 7.16781 43.4651 15.9784 43.4651C16.7402 43.4651 17.3926 43.4387 17.9336 43.3561C19.8918 43.1263 21.3203 42.5189 22.3443 41.4859C24.4658 39.3452 24.4347 35.7407 24.3952 31.1768C24.3898 30.5179 24.3838 29.8326 24.3838 29.1247ZM1.79539 27.4867C1.79539 19.6653 8.15767 13.3025 15.9784 13.3025C16.1675 13.3025 16.3471 13.3114 16.5266 13.3204C17.6218 13.3952 17.8827 13.6873 17.939 13.786C18.3752 14.5503 16.8474 17.1338 15.6199 19.2093C13.6977 22.4596 11.3056 26.504 11.3056 30.3707C11.3056 34.8921 14.4673 38.0903 16.5589 40.207C17.0066 40.6595 17.5338 41.1927 17.8181 41.5554C17.7648 41.5655 17.7008 41.5751 17.6314 41.5853C17.1263 41.6415 16.5769 41.6709 15.979 41.6709C8.15767 41.6703 1.79539 35.3074 1.79539 27.4867ZM22.6004 31.1936C22.6381 35.5013 22.665 38.6133 21.0695 40.2226C20.7003 40.5954 20.2257 40.8935 19.6458 41.1215C19.3531 40.4835 18.6847 39.8037 17.8354 38.9443C15.9503 37.0364 13.1004 34.1542 13.1004 30.3707C13.1004 26.9953 15.3542 23.1843 17.1652 20.1226C18.5356 17.8053 19.6901 15.8519 19.7912 14.3157C20.0061 14.4671 20.2113 14.6305 20.3963 14.8172C22.6806 17.1207 22.6411 21.9431 22.5998 27.0486C22.5938 27.7374 22.5884 28.4316 22.5884 29.1247C22.5884 29.838 22.5944 30.5281 22.6004 31.1936Z" fill="#33363A"/>
<path d="M53.0716 29.1244C53.0716 37.4538 52.2499 42.5677 60.5794 42.5677C68.9088 42.5677 75.6601 35.8164 75.6601 27.487C75.6601 19.1576 68.9088 12.4045 60.5794 12.4045C52.2499 12.4045 53.0716 20.795 53.0716 29.1244Z" fill="#A962E8"/>
<path d="M75.6604 27.4864C75.6604 35.2102 69.8535 41.5737 62.3667 42.4576C56.0697 41.6874 56.7537 36.7584 56.7537 29.1244C56.7537 21.4042 56.0547 13.6368 62.5828 12.5416C69.9642 13.5219 75.6604 19.8363 75.6604 27.4864Z" fill="#8B4FE0"/>
<path d="M64.3548 30.3704C64.3548 38.6998 52.2497 42.5677 60.5791 42.5677C68.9086 42.5677 75.6598 35.8164 75.6598 27.487C75.6598 19.1576 68.9092 12.4045 60.5797 12.4045C52.2503 12.4045 64.3548 22.041 64.3548 30.3704Z" fill="#E2CBAA"/>
<path d="M71.055 30.3704C71.055 23.281 62.2941 15.2484 64.8202 13.0138C71.0843 14.8469 75.6602 20.6304 75.6602 27.487C75.6602 34.4759 70.9054 40.3516 64.4551 42.0632C63.4521 40.7723 71.055 36.9757 71.055 30.3704Z" fill="#F2EAC9"/>
<path d="M60.5795 43.4654C58.5279 43.4654 57.2616 43.2769 56.8582 42.3116C56.4231 41.2703 57.3376 40.3444 58.7224 38.944C60.6076 37.0361 63.4575 34.1539 63.4575 30.3704C63.4575 26.9951 61.2037 23.1841 59.3927 20.1223C57.5566 17.0181 56.1066 14.5668 57.0599 12.8965C57.5931 11.9611 58.744 11.5074 60.5795 11.5074C61.0756 11.5074 61.4772 11.9096 61.4772 12.4051C61.4772 12.9007 61.0756 13.3028 60.5795 13.3028C59.0163 13.3028 58.6841 13.6727 58.6195 13.7864C58.1832 14.5506 59.7111 17.1342 60.9386 19.2097C62.8608 22.4599 65.2529 26.5043 65.2529 30.371C65.2529 34.8924 62.0912 38.0906 59.9996 40.2074C59.5519 40.6598 59.0247 41.1931 58.7404 41.5557C59.0456 41.6132 59.5968 41.6706 60.5795 41.6706C61.0756 41.6706 61.4772 42.0728 61.4772 42.5683C61.4772 43.0639 61.075 43.4654 60.5795 43.4654Z" fill="#33363A"/>
<path d="M60.5793 43.4654C57.5744 43.4654 55.5516 42.8364 54.2129 41.4863C52.0913 39.3456 52.1224 35.741 52.1619 31.1772C52.1679 30.517 52.1739 29.8324 52.1739 29.1238C52.1739 28.4356 52.1685 27.7468 52.1625 27.0627C52.1176 21.5724 52.0751 16.3861 54.8861 13.5524C56.2327 12.1945 58.1478 11.5068 60.5787 11.5068C69.3893 11.5068 76.5571 18.6758 76.5571 27.4864C76.5577 36.297 69.3899 43.4654 60.5793 43.4654ZM60.5793 13.3022C58.617 13.3022 57.1723 13.7978 56.1615 14.8163C53.8771 17.1198 53.9166 21.9423 53.9579 27.0478C53.9639 27.7366 53.9693 28.4308 53.9693 29.1238C53.9693 29.8372 53.9633 30.5278 53.9573 31.1927C53.9196 35.5005 53.8927 38.6125 55.4882 40.2217C56.4535 41.196 58.119 41.6694 60.5793 41.6694C68.4 41.6694 74.7623 35.3066 74.7623 27.4864C74.7623 19.6651 68.3994 13.3022 60.5793 13.3022Z" fill="#33363A"/>
<path d="M67.7293 54.692C67.7293 67.0659 54.5439 77.0991 38.2794 77.0991C22.0144 77.0991 8.82959 67.0653 8.82959 54.692C8.82959 42.3158 22.0144 27.4864 38.2794 27.4864C54.5439 27.4864 67.7293 42.3164 67.7293 54.692Z" fill="#BC7DFF"/>
<path d="M67.7293 54.692C67.7293 67.0659 54.5439 77.0991 38.2794 77.0991C22.0144 77.0991 8.82959 67.0653 8.82959 54.692C8.82959 42.3158 22.0144 33.7889 38.2794 33.7889C54.5439 33.7895 67.7293 42.3164 67.7293 54.692Z" fill="#A962E8"/>
<path d="M67.7293 54.692C67.7293 67.0659 54.5439 77.0991 38.2794 77.0991C22.0144 77.0991 8.82959 67.0653 8.82959 54.692C8.82959 42.3146 12.5766 65.6679 38.2794 65.6679C63.9823 65.6679 67.7293 42.3152 67.7293 54.692Z" fill="#F2EAC9"/>
<path d="M38.279 70.4556C15.1495 70.4556 9.80107 51.5501 8.96143 56.7819C10.3475 68.1748 22.941 77.0991 38.279 77.0991C53.6164 77.0991 66.2105 68.1748 67.5966 56.7819C66.7569 51.5501 61.4078 70.4556 38.279 70.4556Z" fill="#FFFBEB"/>
<path d="M38.2792 77.9974C21.5455 77.9974 7.93164 67.5428 7.93164 54.6926C7.93164 51.8625 8.08844 50.6195 9.06214 50.2544C10.0712 49.8768 10.8342 50.7493 12.3567 52.4897C15.8439 56.4754 23.1003 64.7708 38.2792 64.7708C53.458 64.7708 60.7144 56.476 64.2016 52.4897C65.7241 50.7493 66.4896 49.8774 67.4962 50.2544C68.4693 50.6195 68.6267 51.8625 68.6267 54.6926C68.6267 67.5428 55.0128 77.9974 38.2792 77.9974ZM9.81441 52.3532C9.76593 52.7877 9.72703 53.5059 9.72703 54.692C9.72703 66.5524 22.5354 76.2014 38.2792 76.2014C54.023 76.2014 66.8313 66.5524 66.8313 54.692C66.8313 53.5059 66.7924 52.7871 66.7439 52.3532C66.404 52.6985 65.9617 53.2042 65.553 53.671C61.8916 57.8567 54.2731 66.5655 38.2792 66.5655C22.2852 66.5655 14.6662 57.8567 11.0054 53.671C10.5966 53.2042 10.1543 52.6985 9.81441 52.3532Z" fill="#33363A"/>
<path d="M38.2792 77.9974C21.5455 77.9974 7.93164 67.5428 7.93164 54.6926C7.93164 41.9633 21.4689 26.5893 38.2792 26.5893C55.0894 26.5893 68.6267 41.9633 68.6267 54.6926C68.6267 67.5428 55.0128 77.9974 38.2792 77.9974ZM38.2792 28.3841C22.4629 28.3841 9.72703 42.776 9.72703 54.692C9.72703 66.5524 22.5354 76.2014 38.2792 76.2014C54.023 76.2014 66.8313 66.5524 66.8313 54.692C66.8313 42.776 54.0954 28.3841 38.2792 28.3841Z" fill="#33363A"/>
<path d="M28.6068 57.8471C28.6068 60.5097 26.4493 62.6654 23.788 62.6654C21.1266 62.6654 18.9697 60.5097 18.9697 57.8471C18.9697 55.1858 21.1266 53.0289 23.788 53.0289C26.4487 53.0289 28.6068 55.1858 28.6068 57.8471Z" fill="#A5145D"/>
<path d="M23.7877 52.1312C20.6362 52.1312 18.0718 54.695 18.0718 57.8471C18.0718 60.9992 20.6362 63.563 23.7877 63.563C26.9398 63.563 29.5042 60.9992 29.5042 57.8471C29.5042 54.695 26.9398 52.1312 23.7877 52.1312ZM23.7877 61.7677C22.1593 61.7677 20.7607 60.7694 20.1694 59.3535C21.0521 59.3295 22.3442 58.843 23.7877 58.843C25.2312 58.843 26.5239 59.3295 27.4066 59.3535C26.8153 60.7694 25.4161 61.7677 23.7877 61.7677Z" fill="#33363A"/>
<path d="M21.3913 58.2445C22.4757 58.2445 23.3549 57.3654 23.3549 56.2809C23.3549 55.1965 22.4757 54.3174 21.3913 54.3174C20.3068 54.3174 19.4277 55.1965 19.4277 56.2809C19.4277 57.3654 20.3068 58.2445 21.3913 58.2445Z" fill="white"/>
<path d="M21.3909 59.1422C19.8134 59.1422 18.5303 57.8585 18.5303 56.2809C18.5303 54.7034 19.814 53.4209 21.3909 53.4209C22.9685 53.4209 24.2522 54.704 24.2522 56.2809C24.2522 57.8585 22.9685 59.1422 21.3909 59.1422ZM21.3909 55.2157C20.8038 55.2157 20.3257 55.6932 20.3257 56.2803C20.3257 56.868 20.8038 57.3462 21.3909 57.3462C21.9786 57.3462 22.4568 56.868 22.4568 56.2803C22.4568 55.6932 21.9792 55.2157 21.3909 55.2157Z" fill="#33363A"/>
<path d="M57.5882 57.8471C57.5882 60.5097 55.4314 62.6654 52.77 62.6654C50.1086 62.6654 47.9512 60.5097 47.9512 57.8471C47.9512 55.1858 50.108 53.0289 52.77 53.0289C55.4308 53.0289 57.5882 55.1858 57.5882 57.8471Z" fill="#A5145D"/>
<path d="M50.3731 58.2439C51.4572 58.2439 52.3361 57.365 52.3361 56.2809C52.3361 55.1968 51.4572 54.318 50.3731 54.318C49.289 54.318 48.4102 55.1968 48.4102 56.2809C48.4102 57.365 49.289 58.2439 50.3731 58.2439Z" fill="white"/>
<path d="M52.7702 52.1312C50.8312 52.1312 49.1172 53.1037 48.0831 54.5843C48.0166 54.6735 47.9592 54.7668 47.9035 54.8632C47.3685 55.7327 47.0537 56.7525 47.0537 57.8465C47.0537 60.9986 49.6181 63.5624 52.7702 63.5624C55.9218 63.5624 58.4862 60.9986 58.4862 57.8465C58.4862 54.6944 55.9218 52.1312 52.7702 52.1312ZM52.7702 61.7677C51.1418 61.7677 49.7426 60.7694 49.1513 59.3534C49.5631 59.3427 50.0634 59.2338 50.6277 59.1165C50.8294 59.0985 51.0233 59.0608 51.2106 59.0027C51.7002 58.9142 52.2238 58.843 52.7702 58.843C54.2137 58.843 55.5058 59.3295 56.3886 59.3534C55.7973 60.7694 54.3987 61.7677 52.7702 61.7677Z" fill="#33363A"/>
<path d="M50.374 55.2157C49.7863 55.2157 49.3081 55.6932 49.3081 56.2803C49.3081 56.868 49.7863 57.3462 50.374 57.3462C50.9611 57.3462 51.4386 56.868 51.4386 56.2803C51.4386 55.6932 50.9611 55.2157 50.374 55.2157Z" fill="white"/>
<path d="M42.0348 79.1453H34.5229L32.4067 69.9415H44.1504L42.0348 79.1453Z" fill="#D3E0E2"/>
<path d="M42.0349 76.3774L43.5149 69.9415H33.043L34.523 76.3774H42.0349Z" fill="white"/>
<path d="M46.2309 64.7253C46.1352 64.3201 45.7737 64.034 45.3572 64.034H31.2011C30.7846 64.034 30.4231 64.3207 30.3274 64.7253C30.2316 65.1304 30.4273 65.5482 30.7995 65.7349L37.412 69.0438H32.407C32.1335 69.0438 31.875 69.1683 31.705 69.3819C31.5351 69.5956 31.471 69.8756 31.5321 70.1426L33.6476 79.3463C33.7416 79.7545 34.1043 80.043 34.5226 80.043H42.0351C42.4534 80.043 42.8161 79.7545 42.9101 79.3463L45.0256 70.1426C45.0873 69.8762 45.0232 69.5962 44.8527 69.3819C44.6821 69.1677 44.4242 69.0438 44.1507 69.0438H39.1451L45.7587 65.7349C46.1316 65.5482 46.3267 65.1304 46.2309 64.7253ZM37.3815 78.2476H35.2378L33.5345 70.8392H37.3815V78.2476ZM39.1768 70.8392H43.0238L41.3205 78.2476H39.1768V70.8392Z" fill="#33363A"/>
<path d="M63.1178 66.3705L75.0446 57.1655L61.2949 61.101" fill="#FFFBEB"/>
<path d="M63.1183 67.2681C62.8496 67.2681 62.5838 67.1484 62.4073 66.9186C62.1045 66.5266 62.1769 65.9623 62.5695 65.6595L70.7858 59.3175L61.5419 61.964C61.0649 62.0986 60.5682 61.8245 60.4324 61.3481C60.2959 60.8712 60.5718 60.3744 61.0482 60.238L74.7979 56.3025C75.2108 56.1846 75.6519 56.3767 75.8458 56.7609C76.0397 57.1457 75.9338 57.6137 75.5933 57.8764L63.6665 67.0814C63.5025 67.2071 63.3098 67.2681 63.1183 67.2681Z" fill="#33363A"/>
<path d="M13.4405 66.3705L1.51367 57.1655L15.2634 61.101" fill="#FFFBEB"/>
<path d="M13.4399 67.2681C13.2484 67.2681 13.0551 67.2071 12.8917 67.0808L0.965543 57.8764C0.624418 57.6137 0.51849 57.1451 0.712991 56.7609C0.906893 56.3767 1.34676 56.1846 1.7609 56.3025L15.5106 60.238C15.987 60.375 16.2629 60.8718 16.1264 61.3481C15.99 61.8245 15.4927 62.0992 15.0169 61.964L5.77241 59.3181L13.9887 65.6601C14.3813 65.9629 14.4537 66.5266 14.1509 66.9192C13.9744 67.1484 13.7086 67.2681 13.4399 67.2681Z" fill="#33363A"/>
<path d="M44.1504 60.1003C44.1504 61.3356 41.5214 60.6426 38.2789 60.6426C35.0358 60.6426 32.4067 61.3356 32.4067 60.1003C32.4067 58.8639 35.0358 57.8621 38.2789 57.8621C41.522 57.8621 44.1504 58.8639 44.1504 60.1003Z" fill="#BC7DFF"/>
<path d="M38.5062 48.7128C36.8454 48.7128 35.226 48.2053 33.8358 47.2328C32.0446 45.9796 30.8488 44.1034 30.4688 41.9507C29.8243 38.3007 32.2696 34.805 35.919 34.1575C38.9431 33.6243 41.8324 35.6477 42.3657 38.6651C42.4519 39.1529 42.1263 39.6191 41.6379 39.7053C41.1502 39.7921 40.684 39.4659 40.5978 38.9769C40.2363 36.9338 38.2752 35.5591 36.2314 35.9248C33.5569 36.3994 31.7639 38.9626 32.2367 41.6383C32.5335 43.3188 33.4671 44.7832 34.8651 45.7617C36.2631 46.7396 37.9574 47.1125 39.6361 46.8174C41.7959 46.4356 43.6775 45.2363 44.9343 43.4391C46.1911 41.6419 46.6734 39.4635 46.2922 37.3042C45.285 31.6128 39.8348 27.8006 34.144 28.8066C33.658 28.8934 33.19 28.5673 33.1038 28.0783C33.0177 27.5906 33.3432 27.1244 33.8316 27.0382C40.4985 25.864 46.8805 30.3249 48.0601 36.9918C48.5245 39.6233 47.9374 42.2787 46.4059 44.4679C44.8738 46.6582 42.5805 48.1209 39.9491 48.5853C39.4673 48.6703 38.985 48.7128 38.5062 48.7128Z" fill="#33363A"/>
</svg>
